<svg xmlns="http://www.w3.org/2000/svg" viewBox="0 0 1200 800" role="img" aria-label="Equipo Domus Salud coordinando un plan de cuidado">
  <defs>
    <linearGradient id="g" x1="0" x2="1" y1="0" y2="1">
      <stop offset="0" stop-color="#EAF3FB"/>
      <stop offset="1" stop-color="#F4FAF6"/>
    </linearGradient>
    <linearGradient id="b" x1="0" x2="1" y1="0" y2="1">
      <stop offset="0" stop-color="#003D86"/>
      <stop offset="1" stop-color="#002A63"/>
    </linearGradient>
    <linearGradient id="gr" x1="0" x2="1" y1="0" y2="1">
      <stop offset="0" stop-color="#33B233"/>
      <stop offset="1" stop-color="#279A26"/>
    </linearGradient>
    <filter id="shadow" x="-20%" y="-20%" width="140%" height="140%">
      <feDropShadow dx="0" dy="18" stdDeviation="18" flood-color="#001D44" flood-opacity="0.18"/>
    </filter>
  </defs>
  <rect width="1200" height="800" rx="44" fill="url(#g)"/>
  <circle cx="1040" cy="120" r="130" fill="#279A26" opacity="0.08"/>
  <circle cx="150" cy="680" r="170" fill="#002A63" opacity="0.08"/>
  
  <g filter="url(#shadow)">
    <rect x="230" y="145" width="740" height="510" rx="46" fill="#fff"/>
    <rect x="335" y="235" width="530" height="320" rx="30" fill="#EAF3FB"/>
    <path d="M420 510 V330 L600 215 L780 330 V510" fill="#fff" stroke="#002A63" stroke-width="18" stroke-linejoin="round"/>
    <path d="M535 375 h130 M600 310 v130" stroke="#279A26" stroke-width="34" stroke-linecap="round"/>
    <circle cx="340" cy="585" r="48" fill="#279A26" opacity=".9"/>
    <circle cx="860" cy="585" r="48" fill="#002A63" opacity=".9"/>
    <path d="M405 600 C495 545 705 545 795 600" stroke="#002A63" stroke-width="26" fill="none" stroke-linecap="round" opacity=".7"/>
  </g>

</svg>