<svg xmlns="http://www.w3.org/2000/svg" viewBox="0 0 1200 800" role="img" aria-label="Cuidado clínico en el hogar">
  <defs>
    <linearGradient id="g" x1="0" x2="1" y1="0" y2="1">
      <stop offset="0" stop-color="#EAF3FB"/>
      <stop offset="1" stop-color="#F4FAF6"/>
    </linearGradient>
    <linearGradient id="b" x1="0" x2="1" y1="0" y2="1">
      <stop offset="0" stop-color="#003D86"/>
      <stop offset="1" stop-color="#002A63"/>
    </linearGradient>
    <linearGradient id="gr" x1="0" x2="1" y1="0" y2="1">
      <stop offset="0" stop-color="#33B233"/>
      <stop offset="1" stop-color="#279A26"/>
    </linearGradient>
    <filter id="shadow" x="-20%" y="-20%" width="140%" height="140%">
      <feDropShadow dx="0" dy="18" stdDeviation="18" flood-color="#001D44" flood-opacity="0.18"/>
    </filter>
  </defs>
  <rect width="1200" height="800" rx="44" fill="url(#g)"/>
  <circle cx="1040" cy="120" r="130" fill="#279A26" opacity="0.08"/>
  <circle cx="150" cy="680" r="170" fill="#002A63" opacity="0.08"/>
  
  <g filter="url(#shadow)">
    <path d="M250 365 L600 120 L950 365" fill="none" stroke="url(#b)" stroke-width="44" stroke-linecap="round" stroke-linejoin="round"/>
    <path d="M335 360 v235 h530 V360" fill="#fff" stroke="#002A63" stroke-width="14"/>
    <rect x="520" y="300" width="160" height="160" rx="18" fill="url(#gr)"/>
    <rect x="580" y="245" width="40" height="270" rx="8" fill="url(#gr)"/>
    <path d="M345 620 C430 565 500 565 585 620 C500 650 425 665 345 620Z" fill="#002A63" opacity="0.95"/>
    <path d="M855 620 C770 565 700 565 615 620 C700 650 775 665 855 620Z" fill="#002A63" opacity="0.95"/>
    <circle cx="455" cy="455" r="52" fill="#EAF3FB" stroke="#002A63" stroke-width="12"/>
    <circle cx="745" cy="455" r="52" fill="#EAF3FB" stroke="#002A63" stroke-width="12"/>
  </g>

</svg>