<svg xmlns="http://www.w3.org/2000/svg" viewBox="0 0 1200 800" role="img" aria-label="Cuidadores y TENS a domicilio">
  <defs>
    <linearGradient id="g" x1="0" x2="1" y1="0" y2="1">
      <stop offset="0" stop-color="#EAF3FB"/>
      <stop offset="1" stop-color="#F4FAF6"/>
    </linearGradient>
    <linearGradient id="b" x1="0" x2="1" y1="0" y2="1">
      <stop offset="0" stop-color="#003D86"/>
      <stop offset="1" stop-color="#002A63"/>
    </linearGradient>
    <linearGradient id="gr" x1="0" x2="1" y1="0" y2="1">
      <stop offset="0" stop-color="#33B233"/>
      <stop offset="1" stop-color="#279A26"/>
    </linearGradient>
    <filter id="shadow" x="-20%" y="-20%" width="140%" height="140%">
      <feDropShadow dx="0" dy="18" stdDeviation="18" flood-color="#001D44" flood-opacity="0.18"/>
    </filter>
  </defs>
  <rect width="1200" height="800" rx="44" fill="url(#g)"/>
  <circle cx="1040" cy="120" r="130" fill="#279A26" opacity="0.08"/>
  <circle cx="150" cy="680" r="170" fill="#002A63" opacity="0.08"/>
  
  <g filter="url(#shadow)">
    <rect x="250" y="185" width="700" height="430" rx="44" fill="#fff"/>
    <path d="M355 565 C398 480 490 468 548 540 C600 458 708 458 760 540 C818 468 910 480 953 565" fill="none" stroke="#002A63" stroke-width="28" stroke-linecap="round"/>
    <circle cx="438" cy="360" r="72" fill="#EAF3FB" stroke="#002A63" stroke-width="16"/>
    <circle cx="600" cy="327" r="82" fill="#EAF3FB" stroke="#279A26" stroke-width="16"/>
    <circle cx="762" cy="360" r="72" fill="#EAF3FB" stroke="#002A63" stroke-width="16"/>
    <path d="M560 500 h80" stroke="#279A26" stroke-width="34" stroke-linecap="round"/>
    <path d="M600 460 v80" stroke="#279A26" stroke-width="34" stroke-linecap="round"/>
  </g>

</svg>