<svg xmlns="http://www.w3.org/2000/svg" viewBox="0 0 1200 800" role="img" aria-label="Rehabilitación domiciliaria">
  <defs>
    <linearGradient id="g" x1="0" x2="1" y1="0" y2="1">
      <stop offset="0" stop-color="#EAF3FB"/>
      <stop offset="1" stop-color="#F4FAF6"/>
    </linearGradient>
    <linearGradient id="b" x1="0" x2="1" y1="0" y2="1">
      <stop offset="0" stop-color="#003D86"/>
      <stop offset="1" stop-color="#002A63"/>
    </linearGradient>
    <linearGradient id="gr" x1="0" x2="1" y1="0" y2="1">
      <stop offset="0" stop-color="#33B233"/>
      <stop offset="1" stop-color="#279A26"/>
    </linearGradient>
    <filter id="shadow" x="-20%" y="-20%" width="140%" height="140%">
      <feDropShadow dx="0" dy="18" stdDeviation="18" flood-color="#001D44" flood-opacity="0.18"/>
    </filter>
  </defs>
  <rect width="1200" height="800" rx="44" fill="url(#g)"/>
  <circle cx="1040" cy="120" r="130" fill="#279A26" opacity="0.08"/>
  <circle cx="150" cy="680" r="170" fill="#002A63" opacity="0.08"/>
  
  <g filter="url(#shadow)">
    <rect x="250" y="185" width="700" height="430" rx="44" fill="#fff"/>
    <circle cx="510" cy="330" r="66" fill="#EAF3FB" stroke="#279A26" stroke-width="15"/>
    <path d="M510 405 C520 475 455 505 430 570" stroke="#002A63" stroke-width="28" fill="none" stroke-linecap="round"/>
    <path d="M530 420 C620 430 655 365 720 345" stroke="#002A63" stroke-width="28" fill="none" stroke-linecap="round"/>
    <path d="M535 500 C615 560 690 585 775 555" stroke="#279A26" stroke-width="30" fill="none" stroke-linecap="round"/>
    <rect x="690" y="250" width="180" height="90" rx="28" fill="#EAF3FB" stroke="#002A63" stroke-width="14"/>
    <path d="M735 295 h90" stroke="#279A26" stroke-width="20" stroke-linecap="round"/>
  </g>

</svg>